<svg xmlns="http://www.w3.org/2000/svg" viewBox="0 0 1600 1400" width="1600" height="1400"><path fill="#FFF" d="M0 0h1600v1400H0z"/><g transform="translate(494.0 790.0) rotate(0.0 411.0 182.0) scale(0.9987994964689643 0.9978371058337834)"><svg width="822.988" height="364.789" viewBox="0 0 822.988 364.789"><path d="m1 159.909 277.025 203.88 277.236-95.622 266.727-91.998-.386-14.689L1 144.927z" fill="#fff"/><path d="M278.025 364.79a.998.998 0 0 1-.593-.195L.407 160.714a1 1 0 0 1-.407-.805v-14.981a.999.999 0 0 1 1.02-1l820.602 16.552a1 1 0 0 1 .979.973l.387 14.69a1 1 0 0 1-.673.972l-543.963 187.62a.992.992 0 0 1-.326.055zM2 159.403l276.195 203.27 542.774-187.21-.342-13.003L2 145.948z" fill="#0f3336"/><path d="M1 144.927S238.873 75.224 243.424 73.86c6.956-2.085 16.87 2.145 16.87 2.145s3.49-7.676 11.066-10.334c4.548-1.596 220.603-64.67 220.603-64.67l329.638 160.48s-234.25 80.373-241.556 83.606c-9.495 4.2-12.828 11.704-12.828 11.704s-8.667-4.184-19.06-.756c-4.79 1.58-270.88 92.224-270.88 92.224z" fill="#fff"/><path d="M521.307 229.747s3.86-9.185 9.833-11.369c4.664-1.705 241.218-80.872 241.218-80.872l27.138 13.212s-237.922 80.564-244.697 83.095c-5.641 2.107-9.358 10.15-9.358 10.15l-24.135-14.216zm-396.148 6.557s252.414-79.521 256.435-80.785c6.698-2.106 14.193.274 14.193.274l22.402 13.195s-8.617-1.669-16.829.616c-7.319 2.037-255.985 81.578-255.985 81.578l-20.215-14.878z" fill="#E6E6E6"/><g fill="#0f3336"><path d="M485.781 186.384a1.001 1.001 0 0 1-.311-1.951l211.127-68.927a1 1 0 1 1 .621 1.901l-211.127 68.927a.991.991 0 0 1-.311.05zM267.073 316.055a1 1 0 0 1-.319-1.948l237.115-79.835a1 1 0 0 1 .639 1.896l-237.115 79.835a.99.99 0 0 1-.319.052zM119.169 209.311a1 1 0 0 1-.296-1.955l225.504-69.888a1 1 0 0 1 .592 1.91l-225.504 69.888a.985.985 0 0 1-.296.045zm-46.358-33.457a1 1 0 0 1-.289-1.957l153.78-46.411a1 1 0 1 1 .579 1.914l-153.78 46.411a1.004 1.004 0 0 1-.29.043zm338.829-33.376a1.001 1.001 0 0 1-.3-1.954l101.495-31.89a1.001 1.001 0 0 1 .6 1.908l-101.495 31.89c-.1.031-.201.046-.3.046zm-78.227 93.65a1.001 1.001 0 0 1-.311-1.951l109.757-35.832a1 1 0 1 1 .621 1.901l-109.757 35.833a.991.991 0 0 1-.311.05zm25.385-124.247a1 1 0 0 1-.292-1.957l99.73-30.496a1 1 0 0 1 .585 1.913l-99.73 30.496a.997.997 0 0 1-.293.044zm-50.052-28.982a1 1 0 0 1-.285-1.959l98.009-29.203a1 1 0 0 1 .571 1.917l-98.009 29.203a1.01 1.01 0 0 1-.286.042z"/></g><path d="m422.501 48.005 82.544-24.595L641.13 90.731l-85.939 27.347z" fill="#9DE9FF"/><path d="M567.216 257.79a.993.993 0 0 1-.506-.139L259.787 76.866a.999.999 0 1 1 1.015-1.723l306.923 180.785a.999.999 0 0 1-.509 1.862z" fill="#0f3336"/><path d="M277.277 349.257c-.21 0-.418-.067-.593-.195L.407 145.733a1 1 0 0 1 .312-1.765c2.379-.697 237.922-69.718 242.418-71.066 6.075-1.82 14.053.84 16.682 1.837 1.179-2.152 4.766-7.752 11.211-10.013C275.551 63.141 482.861 2.616 491.683.04c.238-.069.495-.048.718.061l329.639 160.48a.999.999 0 0 1-.113 1.845c-2.342.804-234.292 80.396-241.476 83.574-8.999 3.98-12.288 11.125-12.32 11.197a.998.998 0 0 1-1.346.493c-.084-.04-8.456-3.961-18.313-.708-4.731 1.561-268.21 91.314-270.872 92.22a.993.993 0 0 1-.322.053zM3.219 145.319l274.229 201.823c12.958-4.414 265.753-90.527 270.395-92.058 8.829-2.912 16.372-.568 18.91.423 1.211-2.173 4.978-7.836 12.888-11.335 6.959-3.079 213.702-74.051 239.347-82.852L491.873 2.068c-10.142 2.961-215.798 63.008-220.182 64.546-7.067 2.479-10.454 9.733-10.487 9.806a1 1 0 0 1-1.302.505c-.096-.041-9.667-4.062-16.191-2.107-4.284 1.284-217.738 63.834-240.492 70.501z" fill="#0f3336"/></svg></g><g transform="translate(308.0 877.0) rotate(0.0 276.5 153.5) scale(1.0000434015219466 1.0020825037047676)"><svg width="552.976" height="306.362" viewBox="0 0 552.976 306.362"><g fill="#172635"><path d="M63.565 157.822c-8.318-.666-16.206-3.661-22.541-8.691-8.237-6.542-13.288-15.94-14.223-26.464-2.073-23.339 16.234-44.916 40.808-48.1 12.165-1.577 24.161 1.798 32.91 9.257 8.273 7.052 13.011 16.986 13.343 27.972.675 22.355-17.088 42.441-40.439 45.726a44.993 44.993 0 0 1-9.858.3zM76.249 86.28a33.984 33.984 0 0 0-7.098.189c-17.962 2.327-31.882 18.418-30.397 35.137.641 7.215 4.097 13.653 9.733 18.129 6.24 4.956 14.72 7.107 23.265 5.905 17.091-2.405 30.601-17.425 30.117-33.482-.228-7.556-3.472-14.376-9.133-19.202-4.573-3.898-10.269-6.178-16.487-6.676zm66.797 165.84c-8.318-.666-16.208-3.661-22.543-8.691-8.237-6.542-13.288-15.94-14.222-26.463-2.073-23.339 16.234-44.916 40.809-48.1 12.165-1.577 24.16 1.797 32.91 9.256 8.273 7.051 13.012 16.986 13.343 27.972.029.959.024 1.913-.014 2.862-.845 21.184-18.076 39.718-40.425 42.865a44.994 44.994 0 0 1-9.858.299zm12.684-71.543a33.993 33.993 0 0 0-7.099.19c-17.962 2.327-31.882 18.418-30.397 35.137.641 7.215 4.097 13.652 9.732 18.128 6.241 4.957 14.721 7.11 23.265 5.906 16.504-2.324 29.669-16.409 30.117-31.833.016-.548.016-1.099-.001-1.65-.228-7.556-3.472-14.376-9.134-19.202-4.57-3.897-10.265-6.178-16.483-6.676zm269.938 55.884-201.64 35.033c-8.54 1.484-14.699 9.009-14.465 17.674.307 11.388 11.262 19.436 22.221 16.326l138.06-39.18z"/><path d="M18.844 66.643 314.769 0l238.207 214.343-324.25 92.019z"/></g><path d="M15.349 30.775 314.769 0l238.207 214.343-328.948 57.152z" fill="#0275a4"/><path d="m4.547 60.716 209.514 239.689v.003a17.313 17.313 0 0 1-4.498-11.24c-.234-8.665 5.925-16.19 14.465-17.674L15.349 30.775C6.295 31.878-.384 39.764.017 48.877l.04.903a17.335 17.335 0 0 0 4.53 10.987" fill="#0275a4"/><path d="m552.976 214.343-328.948 57.152" fill="#172635"/><path d="M195.879 258.446 13.921 48.694l.799-9.968 499.474 154.093-.799 9.968" fill="#fff"/><path d="M14.72 38.726 307.789 5.227l206.405 187.592-317.517 55.659z" fill="#fff"/><path d="M196.677 249.478a.999.999 0 0 1-.755-.345L13.964 39.381a1 1 0 0 1 1.511-1.311l181.587 209.325 316.959-55.561a1 1 0 1 1 .345 1.97L196.85 249.463a1.01 1.01 0 0 1-.173.015z" fill="#172635"/><path d="M193.301 208.986c0 2.146-2.829 3.576-6.187 3.208-3.22-.353-5.735-2.242-5.734-4.231 0 0-.014-.956-.03-1.508-.228-7.556-3.472-14.376-9.134-19.202-4.572-3.897-10.267-6.178-16.485-6.676a33.993 33.993 0 0 0-7.099.19c-17.962 2.327-31.882 18.418-30.397 35.137.641 7.215 4.097 13.652 9.732 18.128 6.241 4.957 14.721 7.11 23.265 5.906l1.673 11.882a44.997 44.997 0 0 1-9.858.3c-8.318-.666-16.208-3.661-22.543-8.691-8.237-6.542-13.288-15.94-14.222-26.463-2.073-23.339 16.234-44.916 40.809-48.1 12.165-1.577 24.16 1.797 32.91 9.256 8.273 7.051 13.012 16.986 13.343 27.972.029.959.024 1.913-.014 2.862zm20.76 91.419v.003a17.313 17.313 0 0 1-4.498-11.24c-.234-8.665 5.925-16.19 14.465-17.674M113.821 114.687c0 2.146-2.829 3.576-6.187 3.208-3.22-.353-5.735-2.242-5.734-4.231 0 0-.014-.956-.03-1.508-.228-7.556-3.472-14.376-9.134-19.202-4.572-3.897-10.267-6.178-16.485-6.676a33.993 33.993 0 0 0-7.099.19c-17.962 2.327-31.882 18.418-30.397 35.137.641 7.215 4.097 13.652 9.732 18.128 6.241 4.957 14.721 7.11 23.265 5.906l1.673 11.882a44.997 44.997 0 0 1-9.858.3c-8.318-.666-16.208-3.661-22.543-8.691-8.237-6.542-13.288-15.94-14.222-26.463-2.073-23.339 16.234-44.916 40.809-48.1 12.165-1.577 24.16 1.797 32.91 9.256 8.273 7.051 13.012 16.986 13.343 27.972.029.959.024 1.913-.014 2.862z" fill="#172635"/></svg></g><g transform="translate(73.0 207.0) rotate(0.0 457.5 413.5) scale(0.9994211003462475 0.9995576322933261)"><svg width="915.53" height="827.366" viewBox="0 0 915.53 827.366"><path d="M794.464 628.063c-6.905 0-13.932-.569-21-1.727-34.845-5.706-65.646-24.752-84.506-52.256-22.469-32.766-33.478-57.601-42.324-77.556-7.797-17.588-13.956-31.48-24.937-45.268-28.239-35.454-45.999-50.894-51.834-55.967-22.006-19.131-39.053-45.703-48-74.821-8.827-28.726-8.89-56.733-.178-78.862a1 1 0 0 1 .442-.507c33.338-18.636 68.829-22.614 102.636-11.504 35.636 11.711 65.745 39.738 82.608 76.894 11.908 26.237 24.235 46.274 37.685 61.255 10.083 11.23 25.104 19.262 42.496 28.562 22.692 12.133 48.412 25.886 72.63 51.249 24.413 25.565 36.862 59.196 34.154 92.268-2.285 27.911-15.429 52.822-36.06 68.347-17.272 12.996-39.783 19.892-63.812 19.893zm-271.05-385.392c-8.416 21.658-8.291 49.059.359 77.21 8.839 28.766 25.673 55.01 47.401 73.898 5.87 5.104 23.734 20.634 52.087 56.231 11.141 13.988 17.656 28.685 25.201 45.703 8.813 19.88 19.781 44.622 42.146 77.236 18.553 27.055 48.871 45.795 83.18 51.413 31.131 5.097 61.485-1.387 83.284-17.79 20.176-15.182 33.031-39.571 35.27-66.913 2.661-32.503-9.588-65.571-33.607-90.724-23.998-25.131-49.567-38.803-72.127-50.866-17.558-9.389-32.722-17.497-43.041-28.989-13.589-15.135-26.025-35.338-38.018-61.765-16.632-36.648-46.305-64.283-81.411-75.82-33.157-10.894-67.979-7.03-100.724 11.176z" fill="#172635"/><path d="M859.652 609.551c44.849-34.402 45.784-97.848 10.406-158.345-35.356-60.462-224.702-302.483-347.445-209.233-9.639 24.485 37.911 85.323 48.297 168.356 29.71 237.541 218.81 252.863 288.742 199.222z" fill="#06B6D4"/><ellipse cx="684.995" cy="423.833" fill="#06B6D4" rx="90.234" ry="45.128" transform="matrix(.2098 -.9777 .9777 .2098 126.8872 1004.6666)"/><path d="M670.968 513.577c-1.724 0-3.43-.179-5.113-.54-12.176-2.612-21.556-14.425-26.414-33.263-4.796-18.599-4.635-41.903.453-65.618a1.001 1.001 0 0 1 1.956.42c-5.024 23.417-5.192 46.395-.472 64.699 4.659 18.066 13.501 29.362 24.897 31.808 11.398 2.445 24.094-4.229 35.755-18.793 11.814-14.757 21.088-35.78 26.112-59.198a1 1 0 1 1 1.956.42c-5.089 23.715-14.502 45.033-26.507 60.027-10.479 13.086-21.879 20.038-32.623 20.038z" fill="#172635"/><path d="M884.945 451.403c-57.941-88.304-191.17-84.177-238.297-176.833-32.458-23.111-59.75 52.515-45.745 92.499 26.751 27.581 37.989 46.42 57.883 83.548 24.183 45.133 45.673 98.033 87.127 133.285 35.53 30.215 93.386 45.743 123.695 12.809 30.819-33.486 41.938-104.768 15.337-145.308z" fill="#fff"/><ellipse cx="323.88" cy="667.639" fill="#06B6D4" rx="100.369" ry="50.646" transform="matrix(.4276 -.9039 .9039 .4276 -418.1357 674.8945)"/><path d="M763.529 365.492c142.284 14.726 180.582 139.577 131.963 130.342z" fill="#06B6D4"/><path d="M815.645 377.923a1.01 1.01 0 0 1-.331-.057c-16.17-5.662-33.628-9.491-51.888-11.38a1.001 1.001 0 0 1 .206-1.99c18.415 1.906 36.026 5.769 52.344 11.482a1 1 0 0 1-.331 1.945z" fill="#172635"/><path d="m710.242 337.973.028.014-.029-.02.001.006z" fill="#88cd9a"/><path d="M884.945 451.403c-44.037-67.113-123.831-80.265-170.698-110.735 17.011 13.804 23.711 51.433 14.872 92.632-10.455 48.726-38.686 83.988-63.055 78.759-5.747-1.233-10.754-4.63-14.932-9.707l-.021.006c24.933 44.723 44.564 93 84.438 111.829 42.174 19.916 107.081 15.716 137.39-17.219 30.818-33.486 38.607-105.025 12.006-145.565z" fill="#06B6D4"/><path d="M884.946 452.403a1 1 0 0 1-.837-.451c-7.343-11.191-16.217-21.598-26.375-30.931-27.654-25.408-61.989-40.448-92.282-53.718-19.03-8.336-37.005-16.21-51.75-25.797a1 1 0 1 1 1.091-1.676c14.607 9.497 32.509 17.339 51.462 25.642 30.436 13.333 64.933 28.444 92.833 54.078 10.28 9.444 19.261 19.977 26.695 31.306a1 1 0 0 1-.837 1.547zM735.547 615.187a.997.997 0 0 1-.426-.096c-33.517-15.828-52.565-51.722-72.731-89.723-3.931-7.407-7.995-15.066-12.153-22.523a.999.999 0 0 1 .601-1.449 1 1 0 0 1 1.25.662c4.131 7.417 8.166 15.019 12.069 22.374 20.006 37.699 38.903 73.308 71.819 88.852a1 1 0 0 1-.429 1.903zm-583.471-3.294c-15.299 0-29.801-3.719-42.418-11.059C88.123 588.307 73 566.142 67.075 538.42c-7.523-35.201.898-73.123 23.104-104.041 21.037-29.291 44.962-46.92 66.071-62.473 16.183-11.924 30.159-22.222 38.844-35.112 11.582-17.191 21.439-39.398 30.133-67.891 11.423-37.434 25.209-63.18 42.146-78.708 15.937-14.613 34.921-20.884 59.73-19.728 19.013.884 49.845 8.171 88.754 37.864 23.227 17.726 38.552 35.316 38.704 35.492a.97.97 0 0 1 .148.228c2.433 5.154-10.724 19.468-38.321 48.77-13.526 14.362-28.856 30.64-43.735 47.818-2.118 2.445-5.259 5.02-9.235 8.28-10.732 8.799-26.951 22.097-42.979 49.122-9.323 15.72-14.048 31.017-20.029 50.384-6.713 21.735-15.067 48.786-33.389 85.233-17.912 35.632-49.836 63.219-85.397 73.795-9.983 2.968-19.923 4.44-29.548 4.44zM321.58 172.336c-45.935 0-73.523 28.604-94.44 97.15-8.753 28.685-18.693 51.066-30.387 68.424-8.878 13.178-22.983 23.571-39.316 35.605-20.99 15.466-44.78 32.995-65.633 62.03-21.878 30.461-30.178 67.806-22.772 102.457 5.806 27.164 20.591 48.864 41.633 61.104 20.073 11.676 45.072 13.959 70.391 6.429 35.042-10.422 66.512-37.628 84.18-72.776 18.247-36.298 26.574-63.261 33.265-84.925 5.782-18.721 10.776-34.89 20.22-50.814 16.208-27.327 32.59-40.759 43.431-49.647 3.902-3.2 6.985-5.727 8.991-8.043l.756.655-.756-.655c14.906-17.209 30.251-33.503 43.79-47.879 20.356-21.615 39.593-42.041 38.014-46.435-2.849-3.231-62.209-69.586-125.937-72.55-1.836-.087-3.651-.13-5.43-.13z" fill="#172635"/><path d="M571.734 565.052c-60.711 91.638-216.181 85.066-269.506 60.432-72.916-121.319-35.478-253.084 59.405-390.286l221.038 54.496s48.346 185.875-10.937 275.358z" fill="#06B6D4"/><path d="M595.047 506.021a1 1 0 0 1-.981-1.201c18.959-92.518-12.049-213.662-12.364-214.875a1 1 0 0 1 1.935-.503c.317 1.217 31.441 122.801 12.388 215.779a.998.998 0 0 1-.978.8z" fill="#172635"/><path d="M236.683 445.31c107.551 101.801 138.751 152.872 208.629 190.379 28.513 27.832-33.392 89.708-75.228 83.033-43.746-57.982-131.142-17.885-269.105-123.563-50.807-38.917 45.188-235.525 135.704-149.849z" fill="#fff"/><path d="M701.188 774.948a2.093 2.093 0 0 1-2.943.316l-13.437-10.834a2.093 2.093 0 0 1 2.627-3.259l13.437 10.834a2.092 2.092 0 0 1 .316 2.943z" fill="#172635"/><path d="m695.974 764.332-6.267 7.772-33.672-14.304 18.82-23.342z" fill="#fff"/><path d="M689.707 773.103a.999.999 0 0 1-.391-.08l-33.672-14.303a1 1 0 0 1-.388-1.548l18.82-23.342a.956.956 0 0 1 .81-.372 1 1 0 0 1 .785.422l21.118 29.873c.258.365.242.857-.038 1.205l-6.266 7.772a.994.994 0 0 1-.778.373zm-32.062-15.706 31.758 13.49 5.318-6.596-19.918-28.175z" fill="#172635"/><path d="m481.518 617.068 18.821-23.343L675.393 734.87l-18.82 23.343z" fill="#fff"/><path d="M656.539 759.206c-.227 0-.449-.078-.628-.222l-175.049-141.14a1 1 0 0 1-.151-1.406l18.82-23.342a.998.998 0 0 1 1.406-.15l175.049 141.139a1 1 0 0 1 .151 1.406l-18.82 23.342a1.002 1.002 0 0 1-.778.373zm-173.642-142.29L656.388 756.8l17.565-21.785-173.492-139.883z" fill="#172635"/><path d="m487.325 594.577-7.756 9.619-44.92-36.218a3.958 3.958 0 0 1-.597-5.565l2.788-3.457a3.958 3.958 0 0 1 5.565-.597z" fill="#fff"/><path d="M479.569 605.196c-.227 0-.449-.078-.628-.222l-44.92-36.218a4.964 4.964 0 0 1-.748-6.971l2.788-3.458a4.964 4.964 0 0 1 6.971-.748l44.92 36.218a1 1 0 0 1 .151 1.406l-7.756 9.619a1.002 1.002 0 0 1-.778.374zm-39.645-46.713a2.95 2.95 0 0 0-2.305 1.1l-2.787 3.457a2.962 2.962 0 0 0 .446 4.159l44.141 35.59 6.5-8.062-44.141-35.591a2.95 2.95 0 0 0-1.854-.653z" fill="#172635"/><path d="m445.167 587.763 18.82-23.343 36.351 29.31-18.82 23.342z" fill="#06B6D4"/><path d="m500.938 592.947-36.349-29.308a.998.998 0 0 0-1.406.15l-18.82 23.342a.998.998 0 0 0 .151 1.406l36.349 29.308a.995.995 0 0 0 .734.216.999.999 0 0 0 .672-.366l18.82-23.342a1 1 0 0 0-.151-1.406zm174.053 144.932-15.584 19.328a8.573 8.573 0 0 1-12.055 1.293l-81.202-65.472a8.573 8.573 0 0 1-1.293-12.055l15.584-19.328a8.572 8.572 0 0 1 12.054-1.293l81.202 65.472a8.572 8.572 0 0 1 1.294 12.055z" fill="#172635"/><path d="M525.211 643.476c35.56-26.613 72.595-23.144 102.832-8.175 17.104 8.467 32.054 20.687 43.258 33.119-3.867 22.087 15.233 47.337 18.042 50.311-14.881 13.028-63.101-4.891-74.339-39.549-15.186 10.965-55.289 7.604-55.289 7.604s-57.167-24.156-34.504-43.31z" fill="#fff"/><path d="M675.307 724.004c-4.078 0-8.631-.663-13.494-2.004-18.221-5.025-39.713-19.684-47.335-41.254-6.616 4.205-17.628 6.676-32.769 7.349-11.85.525-21.977-.304-22.078-.312a.99.99 0 0 1-.306-.076c-1.542-.651-37.78-16.142-40.291-32.645-.686-4.513 1.174-8.668 5.53-12.35l.046-.037c39.678-29.694 78.388-20.888 103.875-8.27 15.724 7.784 31.193 19.626 43.558 33.346a1 1 0 0 1 .242.842c-3.688 21.066 14.318 45.781 17.784 49.452a.998.998 0 0 1-.068 1.439c-3.422 2.996-8.512 4.52-14.694 4.52zm-60.303-45.822a1 1 0 0 1 .951.691c6.987 21.549 28.333 36.219 46.389 41.198 10.849 2.992 20.29 2.43 25.564-1.469-1.958-2.365-6.735-8.768-10.987-17.418-4.105-8.352-8.563-20.711-6.687-32.452-12.145-13.385-27.269-24.927-42.636-32.535-24.979-12.366-62.908-21.006-101.765 8.062-3.825 3.241-5.403 6.677-4.821 10.502 2.266 14.905 36.406 29.943 38.945 31.042 2.769.212 40.225 2.848 54.46-7.43.174-.126.38-.191.587-.191z" fill="#172635"/><path d="M418.103 619.158c56.125-3.857 106.241 15.867 126.419 26.82 29.787 16.17-3.527 102.097-83.879 102.563-22.165.128-74.5.001-106.146-45.385-6.954-9.972 11.513-80.419 63.606-83.998zm273.692 96.658a12.266 12.266 0 0 1-2.452 2.915c-26.186 2.018-60.885-43.308-18.042-50.311 17.114 19.029 25.657 38.79 20.494 47.396z" fill="#fff"/><path d="M687.551 719.8c-17.193 0-35.588-17.732-37.304-32.023-.744-6.2.98-17.088 20.892-20.343a.998.998 0 0 1 .905.318c17.572 19.538 26.047 39.515 20.608 48.58a13.309 13.309 0 0 1-2.65 3.152 1.002 1.002 0 0 1-.583.246c-.619.046-1.243.07-1.868.07zm-16.627-50.302c-13.18 2.294-19.813 8.688-18.691 18.04 1.633 13.602 20.361 31.213 36.697 30.22a11.262 11.262 0 0 0 2.008-2.456c4.875-8.127-3.535-27.337-20.014-45.804zm20.871 46.318h.01z" fill="#172635"/><path d="M548.302 739.511c-16.535-10.177-44.327-27.253-39.149-49.556 5.809-25.018 20.087-35.331 44.22-27.531 35.101 11.344 67.714 46.897 63.728 73.604-3.323 22.261-22.159 46.766-42.184 64.566-25.825 12.548-41.189 18.186-50.505 24.237-17.213-11.687-14.447-63.284 23.89-85.32z" fill="#fff"/><path d="M529.67 827.349c-2.4 0-4.404-.547-5.885-1.738-7.027-4.767-10.955-15.798-10.444-29.46.683-18.254 9.743-42.524 33.025-56.657-11.055-6.817-26.695-16.762-34.264-29.112a1 1 0 1 1 1.705-1.045c7.648 12.478 24.086 22.594 34.964 29.289.3.185.509.531.503.884s-.168.693-.474.869c-23.637 13.586-32.783 37.757-33.46 55.847-.478 12.775 3.213 23.42 9.633 27.779 6.688 5.372 30.135-6.156 49.259-24.138 23.348-20.755 38.997-44.668 41.88-63.985 1.828-12.247-4.356-27.466-16.967-41.754-12.445-14.101-29.24-25.309-46.08-30.751a1 1 0 0 1 .615-1.903c37.052 11.975 68.354 48.28 64.409 74.704-2.95 19.767-18.842 44.128-42.509 65.167-15.012 14.116-34.733 26.002-45.91 26.004z" fill="#172635"/><path d="M571.022 753.433a.993.993 0 0 1-.477-.122c-28.396-15.446-41.509-25.43-41.638-25.529a1 1 0 0 1 1.217-1.587c.128.098 13.139 10 41.376 25.359a1 1 0 0 1-.478 1.879z" fill="#172635"/><path d="M574.917 800.595c-15.685 1.696-26.537-9.004-38.904-2.46-12.171 6.44-13.614 23.404-11.602 26.697 7.709 6.197 32.471-7.278 50.506-24.237z" fill="#fff"/><path d="M529.669 827.349c-2.399 0-4.404-.548-5.884-1.738a.999.999 0 0 1-.227-.258c-1.255-2.054-1.178-7.336.18-12.286 1.147-4.18 4.206-11.793 11.807-15.816 7.31-3.869 14.106-2.003 21.302-.028 5.552 1.523 11.292 3.099 17.962 2.377a.999.999 0 0 1 .793 1.722c-15.032 14.137-34.755 26.027-45.933 26.027zm-4.482-3.182c6.572 4.856 28.407-5.643 46.978-22.396-5.885.111-11.133-1.326-15.846-2.619-7.098-1.949-13.228-3.631-19.837-.133-6.937 3.67-9.753 10.708-10.814 14.578-1.355 4.935-1.155 9.192-.481 10.57z" fill="#172635"/><path d="M507.702 756.201c-11.553-13.253-24.035-31.083-15.605-46.497 11.508-21.042 26.94-26.731 46.686-13.654 27.421 18.159 46.213 52.979 36.259 79.041-14.327 37.511-102.123 54.867-112.998 39.958-.228-.313-.427-.779-.586-1.121-7.859-16.869 10.65-49.133 46.244-57.727z" fill="#fff"/><path d="M481.406 821.373c-10.215 0-17.43-1.98-20.17-5.736-.254-.349-.454-.785-.615-1.135l-.071-.153c-3.093-6.638-2.323-15.723 2.11-24.924 6.023-12.501 20.499-27.783 43.225-33.795-6.843-7.978-15.493-19.419-17.233-30.916a1 1 0 0 1 1.977-.3c1.753 11.584 11.013 23.314 17.826 31.129a.999.999 0 0 1-.519 1.629c-22.96 5.543-37.512 20.743-43.474 33.119-4.172 8.659-4.937 17.12-2.098 23.212l.076.165c.123.269.277.604.412.79 3.372 4.623 15.734 6.125 32.26 3.919 16.12-2.152 33.388-7.401 47.376-14.402 11.534-5.772 26.383-15.532 31.619-29.243 4.575-11.979 3.126-26.786-4.08-41.691-6.826-14.118-18.415-27.297-31.797-36.158a1 1 0 0 1 1.105-1.668c13.672 9.054 25.516 22.524 32.493 36.956 7.449 15.407 8.922 30.776 4.148 43.276-5.466 14.312-20.741 24.386-32.593 30.318-14.178 7.096-31.676 12.417-48.007 14.596-5.091.679-9.784 1.012-13.97 1.012z" fill="#172635"/><path d="M519.83 813.898c-1.995-3.296-11.669-6.558-20.124-5.332-9.161 1.329-27.424 5.369-37.662 6.481 5.492 7.822 34.495 7.034 57.786-1.149z" fill="#fff"/><path d="M482.107 821.445c-9.977 0-18.036-1.77-20.882-5.822a1 1 0 0 1 .71-1.569c5.978-.649 14.922-2.344 22.813-3.839 5.665-1.073 11.015-2.087 14.813-2.638 8.967-1.302 18.888 2.112 21.123 5.804a.998.998 0 0 1-.524 1.461c-11.718 4.117-26.232 6.603-38.053 6.603zm-17.949-5.644c7.377 5.717 32.776 4.73 53.937-2.364-2.934-2.494-10.99-4.936-18.246-3.88-3.755.544-9.085 1.554-14.728 2.624-7.092 1.342-15.031 2.846-20.963 3.62zm67.252-36.636a.996.996 0 0 1-.603-.203l-.748-.565c-5.341-4.028-13.411-10.115-23.12-21.549a1.001 1.001 0 0 1 1.524-1.295c9.566 11.266 17.53 17.272 22.8 21.247l.75.567a1 1 0 0 1-.603 1.798z" fill="#172635"/><path d="M398.446 764.472c3.448-13.384 26.665-23.577 51.133-16.541-1.934-11.29-1.348-22.783 7.431-29.23 16.263-11.943 30.05-10.785 40.447 6.212 16.015 26.184 17.125 61.982-3.569 77.249-27.621 20.379-99.208-23.072-95.442-37.69z" fill="#fff"/><path d="M474.85 808.502c-5.317 0-11.231-.819-17.655-2.464-13.194-3.379-27.838-10.093-40.177-18.42-13.638-9.204-20.942-17.95-19.539-23.395 2.379-9.233 13.562-16.864 27.829-18.986a1 1 0 0 1 .294 1.978c-13.482 2.006-24.006 9.041-26.186 17.507-1.13 4.384 6.394 12.919 18.721 21.238 24.313 16.408 58.917 27.381 75.159 15.398 16.486-12.163 22.439-44.649 3.31-75.923a1 1 0 0 1 1.706-1.044c15.354 25.103 18.256 62.282-3.828 78.576-4.991 3.682-11.637 5.535-19.634 5.535z" fill="#172635"/><path d="M461.089 783.638a.997.997 0 0 1-.814-.419c-.256-.36-6.337-9.116-11.675-35.085a1 1 0 0 1 1.959-.403c5.233 25.457 11.286 34.243 11.347 34.329a1 1 0 0 1-.817 1.578z" fill="#172635"/><path d="M449.579 748.932c-42.653 0-74.883-15.159-95.801-45.058-17.804-13.257-40.401-18.365-68.991-24.83-45.471-10.281-107.745-24.362-184.416-83.091-12.672-9.707-17.263-29.404-12.929-55.463 3.785-22.759 14.126-47.811 28.372-68.734 15.628-22.954 34.773-39.134 53.909-45.561 23.285-7.82 46.676-1.46 67.648 18.39 37.357 35.36 64.931 64.003 89.259 89.275 35.076 36.436 60.45 62.794 91.752 84.277 51.525-3.451 96.153 13.099 112.972 20.389a1 1 0 1 1-.795 1.835c-16.723-7.248-61.15-23.723-112.387-20.205a1.014 1.014 0 0 1-.634-.172c-31.604-21.635-57.083-48.104-92.349-84.737-24.313-25.256-51.869-53.882-89.193-89.21-20.692-19.586-42.776-25.624-65.636-17.946-18.725 6.289-37.509 22.196-52.892 44.791-14.088 20.692-24.313 45.454-28.052 67.937-4.207 25.295.116 44.312 12.172 53.547 76.323 58.463 138.351 72.488 183.641 82.729 28.891 6.532 51.711 11.692 69.876 25.274.085.064.16.141.221.229 20.519 29.418 52.23 44.335 94.253 44.335a1 1 0 0 1 0 1.999z" fill="#172635"/><path d="M275.884 745.717c.105.11.213.218.317.329l-.008-.029c-.101-.102-.209-.195-.309-.3z" fill="#88cd9a"/><path d="M279.675 642.648c22.835-48.267 61.843-77.698 87.128-65.737.528.25 1.031.539 1.539.821.034.01.068.016.102.026-11.614-10.016-39.138-39.677-53.565-54.652 5.393-16.855-2.778-23.493-20.011-20.575 35.36-9.821 38.424-33.046 15.446-47.745 87.989-17.945 53.904-105.936 61.584-114.804 40.661-46.946 85.272-107.731 81.722-115.252 0 0-60.591-56.537-126.845-57.162C201.104 166.385 27.292 394.039 4.314 501.122c-8.665 40.377-10.341 117.543 55.149 122.637-24.894 19.516-11.106 65.989 64.34 44.661-33.207 54.384 95.718 28.327 151.483 86.299-16.91-18.076-15.555-69.914 4.389-112.071z" fill="#06B6D4"/><path d="M275.635 755.719a.995.995 0 0 1-.742-.33c-13.315-14.727-16.268-47.811-7.349-82.323a1 1 0 0 1 1.937.5c-8.758 33.89-5.987 66.233 6.896 80.482a1 1 0 0 1-.742 1.671zm92.808-176.961a.998.998 0 0 1-.653-.243c-8.899-7.675-27.009-26.739-41.56-42.058-4.502-4.739-8.655-9.111-12.072-12.658a1 1 0 0 1 .104-1.482c7.559-5.917 16.389-17.685 16.401-31.374.01-12.532-7.044-24.433-20.967-35.372a1 1 0 0 1 .418-1.767c27.635-5.636 46.077-19.035 54.814-39.824a1 1 0 1 1 1.843.774c-8.787 20.91-27.013 34.552-54.19 40.57 13.338 10.979 20.093 22.954 20.082 35.619-.012 13.894-8.274 25.619-16.306 32.255 3.269 3.4 7.146 7.482 11.324 11.88 14.521 15.287 32.592 34.311 41.416 41.92a1 1 0 0 1 .104 1.41.99.99 0 0 1-.758.35z" fill="#172635"/><path d="M508.52 332.601c50.441-125.37-65.209-179.004-105.009-149.947-45.98 33.569 3.971 103.991 70.817 150.35z" fill="#06B6D4"/><path d="m462.312 220.843 54.857 42.706-33.196 64.646c-73.428-57.928-58.481-125.141-21.661-107.352" fill="#fff"/><path d="M474.327 334.004c-.204 0-.402-.062-.57-.178-51.391-35.641-86.287-80.035-88.903-113.1-1.084-13.709 3.19-25.285 12.706-34.406a1 1 0 1 1 1.384 1.444c-9.061 8.686-13.131 19.723-12.096 32.805 2.566 32.435 37.012 76.151 87.786 111.432l33.873-.399c.525.001 1.005.436 1.012.988a1.001 1.001 0 0 1-.988 1.012l-34.193.403-.011-.001z" fill="#172635"/><path d="M545.135 246.83c-24.954 16.4-47.876 42.504-59.771 63.149-15.546 12.948-47.881-54.384-31.744-85.248 13.565-4.531 34.417-13.959 48.262-25.649z" fill="#fff"/><path d="M481.009 312.626c-2.143 0-4.751-.884-7.847-3.383-7.993-6.451-16.24-21.352-21.008-37.96-5.407-18.833-5.195-35.969.58-47.016.12-.229.324-.403.569-.485a160.608 160.608 0 0 0 9.216-3.415 1 1 0 0 1 .749 1.855 164.033 164.033 0 0 1-8.944 3.327c-11.767 23.283 4.283 69.376 20.094 82.137 4.089 3.301 7.557 3.813 10.306 1.523a1 1 0 0 1 1.28 1.537c-1.224 1.021-2.883 1.88-4.995 1.88z" fill="#172635"/><path d="M507.536 316.87c-43.825-5.657-74.212 15.467-93.083 43.227-10.649 15.665-17.638 33.629-21.269 49.847 8.848 18.685 8.183 37.726 5.431 51.093 16.791 9.553 56.29-31.478 48.602-69.305 18.52 2.069 51.617-20.462 51.617-20.462s37.706-48.895 8.702-54.4z" fill="#fff"/><path d="M393.185 409.944c33.975-16.372 29.246 41.083 5.431 51.093-8.679-4.938-10.947-26.237-5.431-51.093z" fill="#fff"/><path d="M398.616 462.037a.995.995 0 0 1-.494-.131c-9.145-5.203-11.576-26.659-5.913-52.179a.999.999 0 0 1 .542-.684c9.799-4.722 15.693-3.001 18.912-.727 5.273 3.727 7.759 12.018 6.651 22.178-1.286 11.786-7.877 26.659-19.31 31.464a.994.994 0 0 1-.388.079zm-4.56-51.4c-5.166 23.664-3.218 44.148 4.636 49.275 10.402-4.701 16.426-18.577 17.633-29.635 1.029-9.428-1.146-17.027-5.817-20.328-3.904-2.759-9.586-2.518-16.452.688z" fill="#172635"/><path d="M499.569 333.004c-18.049 24.522-36.212 71.022-17.096 94.511 32.264 39.643 133.235-26.352 126.956-45.186s-58.237-34.778-85.982-5.293c.035-12.808 43.288-17.585 27.561-37.725-15.728-20.139-38.572-23.79-51.439-6.307z" fill="#fff"/><path d="M476.284 385.085a.999.999 0 0 1-.978-1.21c3.673-17.076 12.661-36.796 23.457-51.464a1 1 0 0 1 1.611 1.186c-8.338 11.329-18.789 30.597-23.113 50.699a1 1 0 0 1-.977.789z" fill="#172635"/><path d="M533.786 328.195c-14.254 23.104-28.576 61.345-8.538 82.345 28.786 30.167 111.763-15.662 107.661-33.042s-49.765-35.372-77.005-11.203c8.892-11.813 35.634-15.322 24.151-32.426-12.812-19.083-36.017-22.292-46.269-5.674z" fill="#fff"/><path d="M553.862 421.4c-12.25 0-22.295-3.41-29.306-10.139-9.021-8.658-12.054-22.667-8.77-40.516 2.545-13.835 8.796-29.536 17.149-43.075a1 1 0 1 1 1.702 1.05c-8.107 13.141-14.419 28.986-16.884 42.388-2.201 11.962-2.567 28.389 8.188 38.71 14.63 14.042 39.261 9.574 52.641 5.661a1 1 0 0 1 .561 1.92c-9.147 2.674-17.643 4.001-25.281 4.001z" fill="#172635"/><path d="M617.301 338.227c-.022 8.576-3.332 17.969-5.278 23.379 13.275-.417 35.509 14.232 35.781 27.651.29 14.309-61.699 29.943-80.185 4.841-11.318-15.369-4.342-39.443 1.863-57.4 16.956-14.293 34.581-11.175 47.819 1.529z" fill="#fff"/><path d="M614.267 406.445c-.961-14.349 16.774-17.882 33.537-17.188.05 2.582-6.152 13.29-33.537 17.188z" fill="#fff"/><path d="M614.267 407.445a1.004 1.004 0 0 1-.998-.933c-.287-4.287.988-7.917 3.789-10.791 7.124-7.308 22.346-7.814 30.787-7.463a1 1 0 0 1 .958.98c.054 2.801-5.625 14.101-34.396 18.197a.932.932 0 0 1-.14.01zm29.665-17.268c-8.281 0-19.8 1.153-25.442 6.941-2.15 2.206-3.244 4.951-3.26 8.174 23.242-3.536 30.114-11.917 31.352-15.077a92.263 92.263 0 0 0-2.65-.038zm-42.682 18.19h-.008c-15.794-.119-28.021-4.975-34.428-13.675-11.053-15.009-5.331-37.903 1.724-58.319a1 1 0 1 1 1.89.653c-6.885 19.925-12.507 42.217-2.003 56.48 6.024 8.18 17.685 12.747 32.833 12.861a.999.999 0 0 1-.008 2z" fill="#172635"/><path d="m647.805 390.258-.071-.002a1 1 0 0 1-.927-1.068c.647-9.198-15.043-25.098-34.858-26.584a.998.998 0 0 1-.866-1.335c1.106-3.076 4.752-13.831 5.22-23.091.028-.552.482-.993 1.049-.948a1 1 0 0 1 .948 1.049c-.432 8.548-3.469 18.266-4.908 22.45 8.682.938 17.623 4.765 24.721 10.613 7.075 5.829 11.071 12.553 10.688 17.988a.999.999 0 0 1-.996.928z" fill="#172635"/><path d="M606.97 375.167a1.002 1.002 0 0 1-.909-1.416c.023-.05 2.348-5.152 5.023-12.487a1.001 1.001 0 0 1 1.879.685c-2.704 7.415-5.059 12.583-5.083 12.634a1 1 0 0 1-.91.584z" fill="#172635"/><path d="M459.668 321.704s62.025-83.031 115.249-86.506c32.054-2.093 59.841 20.218 71.731 39.372s-29.347 63.657-29.347 63.657z" fill="#fff"/><path d="M617.301 339.227a1 1 0 0 1-.733-1.68c.079-.084 7.93-8.59 15.676-19.577a1.001 1.001 0 0 1 1.635 1.153c-7.826 11.101-15.764 19.699-15.844 19.784a.999.999 0 0 1-.734.32zm-157.633-16.523a.999.999 0 0 1-.801-1.599c.156-.208 15.81-21.067 37.776-42.074 20.338-19.45 50.416-43.016 78.209-44.831a1 1 0 0 1 .13 1.996c-52.152 3.405-113.895 85.279-114.513 86.106a.997.997 0 0 1-.801.402zm4.6-255.091c-10.449 53.686 24.371 107.372 24.371 107.372 26.658-7.959 45.712-38.053 61.957-76.327 0 .001-75.879-84.731-86.328-31.045z" fill="#172635"/><path d="M617.159 135.989c1.92 18.42-7.862 35.18-10.919 44.917-5.382 17.144 6.592 28.143-6.816 56.785-19.372 41.38-82.906 34.414-98.434-30.46-14.962 14.171-31.865-5.863-23.558-23.225-33.891-41.561 4.908-107.12 34.902-35.013 4.698-96.067 99.042-68.499 104.825-13.004z" fill="#fff"/><g fill="#172635"><path d="M559.603 264.553a48.51 48.51 0 0 1-4.921-.252c-20.063-2.042-44.694-17.644-54.268-55.229-5.889 4.825-12.613 5.299-18.251 1.193-6.5-4.733-10.689-15.424-5.9-26.115-6.938-8.688-11.288-19.013-12.592-29.901-1.157-9.66.249-19.379 3.857-26.667 3.822-7.719 9.716-12.036 16.172-11.813 9.739.319 19.57 10.583 27.901 29.021 2.959-37.075 20.671-59.498 47.886-60.246 13.194-.354 27.128 4.779 38.234 14.106 11.698 9.824 18.954 23.047 20.432 37.236 1.49 14.292-3.947 27.613-7.917 37.339-1.25 3.062-2.329 5.707-3.043 7.98-2.08 6.627-1.502 12.198-.832 18.648 1.011 9.735 2.156 20.769-6.033 38.261-7.78 16.623-23.104 26.438-40.725 26.439zm-58.613-58.322a1.002 1.002 0 0 1 .973.768c9.031 37.729 33.259 53.312 52.923 55.313 18.787 1.917 35.506-7.684 43.633-25.044 7.954-16.991 6.839-27.731 5.855-37.207-.664-6.394-1.291-12.433.913-19.454.739-2.354 1.833-5.034 3.1-8.138 3.889-9.53 9.216-22.582 7.779-36.376-1.425-13.669-8.431-26.423-19.729-35.912-10.737-9.016-24.179-13.996-36.893-13.638-27.057.744-44.332 24.107-46.21 62.499a1.001 1.001 0 0 1-1.922.336c-11.264-27.08-22.237-31.428-27.775-31.609-5.643-.17-10.855 3.716-14.314 10.701-8.901 17.977-2.267 41.229 8.885 54.905.245.3.294.714.127 1.063-4.568 9.546-1.042 19.807 5.006 24.21 5.282 3.846 11.464 3.065 16.962-2.143a.996.996 0 0 1 .687-.274z"/><path d="M498.391 193.178a.999.999 0 0 1-.657-.246c-5.728-4.995-8.311-10.866-6.91-15.705.806-2.784 2.87-4.754 5.386-5.144 1.833-.284 3.654.293 5.241 1.613-1.235-13.733-5.795-25.328-13.575-34.501a1.001 1.001 0 0 1 1.525-1.294c8.614 10.157 13.411 23.146 14.257 38.605a1 1 0 0 1-1.83.609c-1.491-2.233-3.426-3.346-5.313-3.056-1.739.269-3.184 1.695-3.771 3.723-1.179 4.072 1.177 9.172 6.303 13.641a1 1 0 0 1-.656 1.755zm13.942-44.185c1.306 14.969 5.185 11.965 6.433 5.048 1.293-7.163 3.902-23.098 7.899-33.693 7.221-10.823-10.993-32.211-14.255-9.031-2.804 19.924-.981 27.307-.077 37.676z"/><path d="M574.917 34.244c-55.508.79-68.462 66.702-55.289 90.05 6.056 10.734 24.87 26.62 43.454 20.64 3.404 19.924 26.297 38.973 51.148 36.552 77.469-7.549 84.315-144.561-39.313-147.242z"/><path d="M530.034 12.031c-41.395-29.872-82.97 1.828-83.636 30.561-.445 19.226 9.445 38.298 30.128 26.043-10.055 27.44 19.124 50.553 47.014 43.404 0 0 65.112 27.395 93.761-44.899 25.329-63.917-49.902-81.534-87.267-55.109z"/></g><path d="M513.081 114.353c-13.244 0-25.813-6.005-33.263-16.036-6.072-8.174-7.819-17.889-5.024-27.599-3.929 1.956-7.75 2.87-11.385 2.715-.552-.023-.98-.489-.957-1.041s.487-.97 1.041-.957c3.927.159 8.144-1.066 12.524-3.661a1 1 0 0 1 1.449 1.204c-3.611 9.853-2.205 19.848 3.958 28.146 7.415 9.982 20.789 15.94 34.086 15.158a1 1 0 1 1 .116 1.997c-.85.05-1.7.074-2.545.074z" fill="#fff"/><path d="M670.994 513.582c-1.731 0-3.445-.182-5.139-.545-6.195-1.329-11.668-5.025-16.269-10.985a.999.999 0 1 1 1.583-1.221c4.304 5.575 9.386 9.024 15.105 10.251 6.722 1.441 13.837-.25 21.147-5.033a1 1 0 0 1 1.094 1.674c-5.959 3.898-11.832 5.859-17.521 5.859zm-368.235-57.711c-27.353 0-60.915-3.164-99.93-9.425a1 1 0 1 1 .317-1.975c42.575 6.833 78.624 9.958 107.145 9.315.532-.044 1.01.424 1.022.977a1 1 0 0 1-.977 1.022c-2.468.058-4.997.086-7.577.086z" fill="#172635"/><path d="M519.629 125.294a1 1 0 0 1-.872-.509c-1.861-3.298-3.268-7.097-4.181-11.289a1 1 0 0 1 1.954-.426c.871 3.997 2.206 7.608 3.968 10.732a1 1 0 0 1-.869 1.492z" fill="#fff"/><path d="M519.629 125.294a1 1 0 0 1-.872-.509c-8.205-14.543-6.631-44.854 8.791-66.795a1 1 0 1 1 1.636 1.151c-14.988 21.324-16.591 50.65-8.686 64.663a1 1 0 0 1-.869 1.49z" fill="#fff"/><path d="M160.388 611.55a1 1 0 0 1-.802-1.596c27.053-36.404 55.973-62.041 85.955-76.198 23.037-10.878 47.064-14.903 69.481-11.639a1 1 0 1 1-.289 1.98c-22.028-3.208-45.659.759-68.339 11.468-29.682 14.015-58.348 39.444-85.203 75.583a.998.998 0 0 1-.803.402z" fill="#172635"/></svg></g><g transform="translate(162.0 910.0) rotate(0.0 106.0 141.0) scale(0.9960767730871332 0.9950424304440643)"><svg width="212.835" height="283.405" viewBox="0 0 212.835 283.405"><path d="M14.7 122.925c0 22.328 41.063 40.428 91.717 40.428s91.717-18.1 91.717-40.428c0-22.327-41.063-40.427-91.717-40.427S14.7 100.598 14.7 122.925z" fill="#e6e6e6"/><path d="m9.711 44.644 29.056 209.417c0 15.654 30.288 28.344 67.651 28.344 37.362 0 67.651-12.69 67.651-28.344l29.055-209.417H9.711z" fill="#fff"/><path d="M106.417 283.405c-18.2 0-35.326-2.976-48.223-8.379-13.135-5.503-20.385-12.921-20.428-20.894L8.72 44.782a.999.999 0 0 1 .99-1.137h193.413a1 1 0 0 1 .99 1.137l-29.046 209.35c-.042 7.973-7.293 15.391-20.428 20.894-12.896 5.404-30.022 8.379-48.222 8.379zM10.859 45.644l28.898 208.28c.006.046.01.092.01.137 0 15.078 29.899 27.344 66.651 27.344s66.651-12.266 66.651-27.344c0-.046.003-.092.01-.137l28.897-208.28H10.859z" fill="#172635"/><g fill="#9de9ff"><ellipse cx="106.417" cy="65.789" rx="106.417" ry="42.169"/><path d="m203.241 36.665 8.8 23.968H.663l8.585-22.667z"/><ellipse cx="106.417" cy="42.169" rx="97.651" ry="42.169"/></g><path d="M106.417 85.337c-26.217 0-50.88-4.416-69.446-12.433C18.138 64.772 7.766 53.856 7.766 42.169a1 1 0 0 1 2 0c0 22.7 43.357 41.169 96.651 41.169s96.651-18.468 96.651-41.169a1 1 0 0 1 2 0c0 11.688-10.372 22.603-29.205 30.736-18.566 8.017-43.229 12.432-69.446 12.432z" fill="#172635"/><path d="M106.417 70.709c-37.728 0-68.422-13.51-68.422-30.115s30.694-30.115 68.422-30.115 68.422 13.51 68.422 30.115c.001 16.605-30.694 30.115-68.422 30.115zm0-58.23c-36.625 0-66.422 12.612-66.422 28.115s29.797 28.115 66.422 28.115 66.422-12.612 66.422-28.115c.001-15.503-29.796-28.115-66.422-28.115z" fill="#172635"/><path d="M15.141 126.906c22.944 45.902 157.156 48.597 182.753-1.036l-10.479 74.016h-.012c-3.92 18.198-38.676 32.434-80.986 32.434-42.601 0-77.532-14.434-81.052-32.811h-.023z" fill="#e6e6e6"/><path d="M14.7 122.925c0 22.328 41.063 40.428 91.717 40.428s91.717-18.1 91.717-40.428c0 0-4.875 1.143-5.085 2.222-3.766 19.377-41.696 34.717-86.632 34.717-44.489 0-82.154-14.893-86.531-33.995-.29-1.265-5.186-2.944-5.186-2.944z" fill="#e6e6e6"/><path d="m30.212 22.258 3.38-10.903c.298-.96-.341-1.859-1.321-1.859H17.27c-1.116 0-2.16.785-2.499 1.878l-3.082 9.941c-.452 1.457.518 2.821 2.005 2.821h14.019c1.116 0 2.16-.785 2.499-1.878z" fill="#9de9ff"/><path d="m11.194 27.616 1.148 10.525 23.354-14.64L34.463 12.2c-.172-1.578-1.448-2.705-3.061-2.705H30.6L12.769 17.83l-.874 2.818c-.712 2.301-.951 4.673-.701 6.968z" fill="#9de9ff"/><path d="M32.832 10.321c.47.578.649 1.395.386 2.241l-2.643 8.527c-.55 1.774-2.244 3.047-4.055 3.047H13.89c-1.583 0-2.915 1.459-2.747 3.006l.871 7.985c.192 1.758 1.613 3.014 3.411 3.014h12.623c1.81 0 3.505-1.273 4.055-3.047l3.351-10.81c.16-.516.214-1.049.157-1.564l-1.247-11.05c-.088-.787-.726-1.349-1.532-1.349z" fill="#172635"/></svg></g><g transform="translate(978.0 470.0) rotate(0.0 276.0 237.0) scale(0.9998297391386248 0.9991083906134399)"><svg width="552.094" height="474.423" viewBox="0 0 552.094 474.423"><path d="m402.764 245.316-295.606-9.935c-4.872-.164-9.131 1.981-10.724 5.401L2.061 443.324a11.25 11.25 0 0 0-1.051 5.251l.178 4.217c.112 2.664 2.972 4.95 6.388 5.106l341.475 15.515c3.556.162 6.522-1.581 7.154-4.203l50.301-212.28.199-8.657c-.105-1.564-1.87-2.887-3.941-2.957z" fill="#fff"/><path d="M349.512 474.423c-.168 0-.336-.004-.507-.012L7.53 458.897C3.615 458.719.322 456 .188 452.835l-.177-4.217a12.186 12.186 0 0 1 1.144-5.715L95.528 240.36c1.775-3.809 6.344-6.151 11.664-5.978l295.606 9.935c2.609.088 4.764 1.796 4.905 3.889l-.197 8.747a.972.972 0 0 1-.027.208l-50.302 212.28c-.718 2.981-3.833 4.982-7.665 4.982zM106.648 236.372c-4.241 0-7.944 1.907-9.307 4.832L2.968 443.747a10.207 10.207 0 0 0-.958 4.787l.177 4.217c.089 2.119 2.578 4.019 5.434 4.148l341.475 15.515c3.044.138 5.623-1.308 6.137-3.438l50.276-212.174.197-8.551c-.067-.937-1.458-1.883-2.975-1.934l-295.606-9.935c-.16-.007-.319-.01-.477-.01z" fill="#172635"/><path d="M347.071 462.326c-.254 0-.509-.005-.767-.017L6.433 447.077c-1.851-.083-3.526-1.001-4.372-2.396-.624-1.029-.706-2.211-.225-3.244l13.449-28.863a.999.999 0 1 1 1.813.845L3.65 442.282c-.253.543-.073 1.041.122 1.363.496.818 1.576 1.381 2.751 1.434l339.871 15.232c5.105.223 9.433-2.254 10.3-5.901l49.04-206.368a1.001 1.001 0 0 1 1.946.462l-49.04 206.368c-1.061 4.46-5.762 7.454-11.569 7.454z" fill="#172635"/><path d="m346.47 445.555 45.792-189.86c.284-1.179-1.217-2.024-3.746-2.113l-154.269-5.38c-3.804-.133-8.481 1.595-9.135 3.377L156.7 438.045c-.895 2.44 1.554 4.213 6.118 4.42l172.736 7.81c4.717.213 10.311-2.209 10.916-4.72z" fill="#172635"/><g fill="#fff"><path d="M299.249 457.94a1 1 0 0 1-.966-1.261l56.818-210.428a1 1 0 0 1 1.931.521L300.214 457.2a1 1 0 0 1-.965.74zm-48.963-6.149a1 1 0 0 1-.958-1.29l61.708-203.688a1 1 0 0 1 1.914.58l-61.708 203.688a1 1 0 0 1-.956.71zm-48.464-6.086a1.001 1.001 0 0 1-.949-1.319l66.656-198.488a1.001 1.001 0 0 1 1.896.637L202.77 445.022c-.14.418-.53.683-.948.683z"/><path d="M364.893 398.101h-.038l-191.256-7.142a1 1 0 1 1 .075-1.999l191.256 7.142a1 1 0 0 1-.037 1.999zm2.486-26.567h-.038l-138.399-5.125a1 1 0 0 1 .074-1.999l138.399 5.125a1 1 0 0 1-.036 1.999zm11.104-25.314h-.037L237.1 341.026a1 1 0 0 1 .073-1.999l141.345 5.193a1 1 0 0 1-.035 2zm1.313-24.79h-.037l-134.088-4.888a1 1 0 0 1 .073-1.999l134.088 4.888a1 1 0 0 1-.036 1.999zm7.638-23.718h-.037l-133.786-4.84a1 1 0 0 1 .072-1.999l133.786 4.84a1 1 0 0 1-.035 1.999zm.526-23.176h-.037l-83.07-2.983a1 1 0 1 1 .072-1.999l83.07 2.983a1 1 0 0 1-.035 1.999zm-127.123-4.565h-.037L98.693 264.15a1 1 0 1 1 .072-1.999l162.108 5.821a1 1 0 0 1-.036 1.999zm47.677 153.655h-.038l-49.135-1.851a1 1 0 0 1 .075-1.999l49.135 1.851a1 1 0 0 1-.037 1.999zm-97.868-3.686h-.038l-46.296-1.743a1 1 0 0 1-.962-1.037.995.995 0 0 1 1.037-.962l46.296 1.743a1 1 0 0 1-.037 1.999z"/></g><path d="M160.447 373.912c-.318 0-.636-.005-.957-.017l-99.927-3.651c-4.71-.172-8.341-1.604-9.711-3.829-.694-1.127-.764-2.372-.201-3.597l31.319-68.224c1.451-3.162 7.714-5.473 14.247-5.258l94.649 3.085c4.602.15 8.328 1.538 9.725 3.621.663.988.799 2.083.394 3.167l-25.686 68.828c-1.26 3.378-7.24 5.875-13.852 5.875zm-66.1-82.591c-5.822 0-10.62 2.061-11.559 4.106l-31.32 68.224c-.278.606-.25 1.167.087 1.714.751 1.219 3.318 2.705 8.081 2.878l99.927 3.651c6.582.244 11.969-2.163 12.862-4.558l25.686-68.828c.177-.475.119-.905-.182-1.354-.843-1.257-3.683-2.591-8.129-2.736l-94.649-3.085a30.991 30.991 0 0 0-.804-.012zm-43.788 71.913h.01z" fill="#172635"/><path d="m513.991 211.565-150.445 259.74c-.792 1.461-3.112 1.966-5.056 1.101-1.638-.729-2.475-2.206-1.983-3.496L543.928 2.776c.601-1.573 3.017-2.25 5.063-1.419 1.492.606 2.331 1.847 2.049 3.028L520.261 195.3c-1.345 5.612-3.446 11.061-6.27 16.265z" fill="#fff"/><path d="M360.5 473.836a5.962 5.962 0 0 1-2.416-.517c-2.144-.954-3.2-2.958-2.51-4.766L543 2.403c.323-.846 1.039-1.553 2.011-1.975 1.315-.572 2.943-.571 4.356.003 1.957.795 3.044 2.517 2.645 4.187l-30.764 190.841a67.77 67.77 0 0 1-6.393 16.607l-150.446 259.74c-.7 1.296-2.233 2.03-3.909 2.03zM547.148 2.001a3.37 3.37 0 0 0-1.339.262c-.475.207-.811.516-.947.871L357.435 469.282c-.287.753.339 1.71 1.462 2.209 1.438.64 3.235.324 3.77-.664l150.452-259.752c2.773-5.111 4.849-10.498 6.171-16.009l30.763-190.84c.176-.749-.435-1.535-1.438-1.943a3.949 3.949 0 0 0-1.467-.282zm-33.157 209.563h.01z" fill="#172635"/><path d="M506.871 209.965 356.831 468.06l49.366-206.614a52.818 52.818 0 0 1 5.043-12.993L543.796 3.12l-29.733 188.202c-1.544 6.433-3.953 12.679-7.192 18.643z" fill="#0275a4"/><path d="M504.725 204.686 368.066 438.39l42.475-180.066a45.477 45.477 0 0 1 4.346-11.193l121.557-224.54-25.529 166.04c-1.328 5.539-3.402 10.917-6.19 16.055z" fill="#9de9ff"/><path d="M506.871 209.965 356.831 468.06l49.366-206.614a52.818 52.818 0 0 1 5.043-12.993L543.796 3.12l-29.733 188.202c-1.544 6.433-3.953 12.679-7.192 18.643z" fill="#fff"/><path d="M356.831 469.06a1 1 0 0 1-.972-1.233l49.366-206.614a53.942 53.942 0 0 1 5.139-13.241L542.916 2.645a1 1 0 0 1 1.867.632L515.05 191.479a77.547 77.547 0 0 1-7.302 18.964l-.014.025-150.04 258.095a.997.997 0 0 1-.863.497zM541.896 8.741 412.12 248.929a51.928 51.928 0 0 0-4.951 12.752L359.384 461.68 506 209.474c3.186-5.87 5.572-12.056 7.092-18.385zm-35.025 201.224h.01z" fill="#172635"/></svg></g></svg>